# xmcd
#
# Track frame offsets: 
#        150
#        13752
#        28649
#        41424
#        53042
#        66388
#        79839
#        93138
#        106566
#        119520
#
# Disc length: 1827 seconds
#
# Revision: 0
# Processed by: cddbd v1.5.2PL0 Copyright (c) Steve Scherf et al.
# Submitted via: ExactAudioCopy v1.0b1
#
DISCID=7507210a
DTITLE=Janie Fricke - From The Heart
DYEAR=1980
DGENRE=Country
TTITLE0=But Love me
TTITLE1=Fallin' For You
TTITLE2=My World Begins And Ends With You
TTITLE3=A Cool September
TTITLE4=When I Fall in Love
TTITLE5=Pass Me By (If You're Only Passing Through)
TTITLE6=Gonna Love Ya (Till The Cows Come Home)
TTITLE7=Some Fools Don't Ever Learn
TTITLE8=One Piece at A Time
TTITLE9=This Ain't Tennessee And He Ain't You
EXTD=
EXTT0=
EXTT1=
EXTT2=
EXTT3=
EXTT4=
EXTT5=
EXTT6=
EXTT7=
EXTT8=
EXTT9=
PLAYORDER=
